<svg width="32" height="32" viewBox="0 0 32 32" fill="none" xmlns="http://www.w3.org/2000/svg">
<path d="M7.55383 18.5638L21.9469 8.59494C22.454 8.24375 23.0657 8.71826 22.8517 9.29672L16.7762 25.717C16.5701 26.2738 15.8133 26.323 15.6134 25.7927L13.6837 20.6718C13.6068 20.4677 13.4265 20.3279 13.2097 20.3042L7.7698 19.7088C7.20638 19.6471 7.06579 18.9018 7.55383 18.5638Z" fill="#A7A7A7"/>
<path d="M16 31C7.71573 31 1 24.2843 1 16H-1C-1 25.3888 6.61116 33 16 33V31ZM31 16C31 24.2843 24.2843 31 16 31V33C25.3888 33 33 25.3888 33 16H31ZM16 1C24.2843 1 31 7.71573 31 16H33C33 6.61116 25.3888 -1 16 -1V1ZM16 -1C6.61116 -1 -1 6.61116 -1 16H1C1 7.71573 7.71573 1 16 1V-1Z" fill="#A7A7A7"/>
</svg>
