<svg width="32" height="32" viewBox="0 0 32 32" fill="none" xmlns="http://www.w3.org/2000/svg">
<circle cx="16" cy="16" r="15.5" stroke="#D8D8D8"/>
<path fill-rule="evenodd" clip-rule="evenodd" d="M16.3337 20.9624C16.3337 20.9624 16.6405 20.9307 16.7977 20.7741C16.9415 20.6306 16.9365 20.3598 16.9365 20.3598C16.9365 20.3598 16.9174 19.0951 17.5501 18.9084C18.1737 18.7248 18.9745 20.1314 19.8242 20.6723C20.4661 21.0812 20.9534 20.9917 20.9534 20.9917L23.2241 20.9624C23.2241 20.9624 24.4114 20.8945 23.8485 20.028C23.802 19.957 23.5201 19.3868 22.1607 18.2155C20.7363 16.9895 20.9276 17.1878 22.6421 15.0667C23.6864 13.775 24.1038 12.9865 23.9733 12.6493C23.8494 12.3268 23.0811 12.4124 23.0811 12.4124L20.5251 12.4271C20.5251 12.4271 20.3356 12.4032 20.1951 12.4811C20.0579 12.5575 19.9689 12.7357 19.9689 12.7357C19.9689 12.7357 19.5648 13.7349 19.0252 14.5852C17.8869 16.3784 17.4321 16.4733 17.2458 16.3622C16.8126 16.1021 16.9207 15.319 16.9207 14.7627C16.9207 13.0243 17.2051 12.2998 16.3678 12.1123C16.0901 12.0498 15.8855 12.0089 15.1746 12.0019C14.2625 11.9934 13.4909 12.005 13.0536 12.2033C12.7625 12.3353 12.538 12.63 12.6752 12.647C12.844 12.6678 13.2265 12.7427 13.4294 12.9988C13.6913 13.3298 13.6821 14.0721 13.6821 14.0721C13.6821 14.0721 13.8326 16.1184 13.3304 16.3722C12.9862 16.5466 12.5139 16.1909 11.4987 14.5636C10.979 13.7303 10.5866 12.809 10.5866 12.809C10.5866 12.809 10.5109 12.6369 10.3754 12.5444C10.2116 12.4325 9.98293 12.3978 9.98293 12.3978L7.55421 12.4124C7.55421 12.4124 7.18919 12.4217 7.05532 12.569C6.93642 12.6994 7.04618 12.9703 7.04618 12.9703C7.04618 12.9703 8.94775 17.099 11.1013 19.18C13.076 21.0874 15.3176 20.9624 15.3176 20.9624H16.3337Z" fill="#A7A7A7"/>
</svg>
